<?xml version="1.0" encoding="utf-8"?>
<!-- Generator: Adobe Illustrator 19.2.1, SVG Export Plug-In . SVG Version: 6.00 Build 0)  -->
<svg version="1.1" id="Calque_1" xmlns="http://www.w3.org/2000/svg" xmlns:xlink="http://www.w3.org/1999/xlink" x="0px" y="0px"
	 viewBox="0 0 1080 1080" style="enable-background:new 0 0 1080 1080;" xml:space="preserve">
<style type="text/css">
	.st0{display:none;}
	.st1{display:inline;fill:#6F6F6E;}
	.st2{display:none;fill:#6F6F6E;}
	.st3{fill:#FFFFFF;}
</style>
<g class="st0">
	<path class="st1" d="M955.6,462.9c3.9,0,7.1-1,9.3-3.2s3.4-5.2,3.4-9.1v-76.8c0-3.2-1.2-5.6-3.4-7.4c-2.5-2-5.4-2.9-9.3-2.9
		c-3.4,0-6.4,1-8.6,2.9s-3.2,4.4-3.2,7.4v76.8c0,3.9,1,6.9,3.2,9.1C948.7,461.9,951.7,462.9,955.6,462.9z"/>
	<path class="st1" d="M1019.2,604.8c-3.9,0-7.9,1-11.8,2.9c-3.9,2-7.6,5.2-11,8.8v-56h-25.8v173.8h25.8v-9.8c3.4,3.9,7.1,6.9,11,8.6
		c3.9,2,8.3,2.7,13.5,2.7c7.6,0,13.5-2.5,17.4-7.1c3.9-4.9,6.1-11.8,6.1-20.9v-71.2c0-10.6-2.2-18.4-6.4-24.1
		C1033.4,607.5,1027.3,604.8,1019.2,604.8z M1017.7,704.7c0,4.2-0.7,7.1-2.2,8.8c-1.5,2-3.7,2.7-6.9,2.7c-2.2,0-4.2-0.5-6.1-1.5
		c-2-1-3.9-2.5-6.1-4.4v-79.8c1.7-1.7,3.4-3.2,5.4-3.9c1.7-0.7,3.7-1.2,5.4-1.2c3.4,0,6.1,1.2,7.9,3.4c1.7,2.2,2.7,5.4,2.7,9.8
		L1017.7,704.7L1017.7,704.7z"/>
	<polygon class="st1" points="778.1,586.1 808.1,586.1 808.1,734.6 837,734.6 837,586.1 866.7,586.1 866.7,560.9 778.1,560.9 	"/>
	<path class="st1" d="M925.6,703.7c-2.5,2.7-5.2,5.2-7.9,6.9c-2.9,1.7-5.4,2.7-7.1,2.7c-2.5,0-4.2-0.7-5.2-2c-1-1.5-1.5-3.4-1.5-6.6
		v-98.4h-25.5v107.3c0,7.6,1.5,13.3,4.4,17.2c2.9,3.9,7.4,5.6,13.5,5.6c4.9,0,9.8-1.2,15-4.2c5.2-2.7,10.1-6.6,14.7-11.8v14h25.5
		V606.3h-26L925.6,703.7L925.6,703.7L925.6,703.7z"/>
	<path class="st1" d="M960,33.6c-279.6,0-506.4,226.8-506.4,506.4c0,279.6,226.8,506.4,506.4,506.4s506.4-226.6,506.4-506.4
		C1466.4,260.4,1239.6,33.6,960,33.6z M1021.1,342.7h28.7v108.2c0,3.4,0.7,5.6,2,7.1c1.2,1.5,3.2,2.2,5.9,2.2c2.2,0,4.9-1,8.1-2.9
		c3.2-2,6.1-4.4,8.8-7.6V342.4h29v141.1h-29v-15.7c-5.4,5.6-10.8,10.3-16.7,13.3c-5.6,2.9-11.3,4.7-16.7,4.7c-6.6,0-11.8-2.2-15-6.4
		c-3.4-4.2-5.2-10.6-5.2-18.9L1021.1,342.7L1021.1,342.7z M914.1,374.8c0-11,3.9-19.6,11.5-26c7.9-6.4,18.2-9.8,31.4-9.8
		c12,0,21.6,3.4,29.5,10.3c7.6,6.9,11.3,15.7,11.3,26.5v72.9c0,12-3.7,21.6-11,28.5c-7.6,6.9-17.9,10.3-30.9,10.3
		c-12.5,0-22.8-3.7-30.2-10.8c-7.6-7.1-11.3-16.7-11.3-28.7L914.1,374.8L914.1,374.8z M835.6,292.3l21.1,76.6h2l20.1-76.6h32.9
		l-37.8,111.9v79.3h-32.4v-75.8l-38.5-115.6h32.6L835.6,292.3L835.6,292.3z M1213.1,695.1c0,51.1-41.5,92.5-92.5,92.5H799.2
		c-51.1,0-92.5-41.5-92.5-92.5v-74.4c0-51.1,41.5-92.5,92.5-92.5h321.3c51.1,0,92.5,41.5,92.5,92.5L1213.1,695.1L1213.1,695.1z"/>
	<path class="st1" d="M1096.5,603.3c-11.5,0-20.9,3.4-28,10.6c-7.4,6.9-10.8,16.2-10.8,27.2v57.4c0,12.3,3.4,22.1,9.8,29
		c6.6,7.1,15.7,10.6,27,10.6c12.8,0,22.3-3.2,28.7-9.8c6.4-6.6,9.6-16.4,9.6-29.7v-6.6h-26.3v5.9c0,7.6-1,12.5-2.5,14.7
		c-1.7,2.2-4.7,3.4-8.8,3.4s-6.9-1.2-8.6-3.9c-1.7-2.7-2.5-7.4-2.5-14V674h49.1v-32.6c0-12.3-3.2-21.4-9.6-28
		C1117.3,606.5,1108.3,603.3,1096.5,603.3z M1106.5,653.6H1084v-13c0-5.4,1-9.3,2.7-11.5c1.7-2.5,4.7-3.7,8.8-3.7
		c3.9,0,6.9,1.2,8.6,3.7c1.7,2.2,2.7,6.1,2.7,11.5L1106.5,653.6L1106.5,653.6z"/>
</g>
<g class="st0">
	<path class="st1" d="M990.4,502.7v-1c-0.2,0.5-0.5,0.7-0.7,1H990.4z"/>
	<path class="st1" d="M960,33.6c-279.6,0-506.4,226.8-506.4,506.4c0,279.6,226.6,506.4,506.4,506.4c279.6,0,506.4-226.6,506.4-506.4
		C1466.4,260.4,1239.6,33.6,960,33.6z M821.8,782H713.3V455.6h108.5L821.8,782L821.8,782z M767.6,410.9h-0.7
		c-36.3,0-59.9-25-59.9-56.5c0-31.9,24.3-56.5,61.4-56.5c37.1,0,59.9,24.3,60.6,56.5C828.9,385.9,805.4,410.9,767.6,410.9z
		 M1213.1,782h-108.5V607.3c0-43.9-15.7-73.9-55-73.9c-29.9,0-47.9,20.4-55.7,39.8c-2.9,6.9-3.7,16.7-3.7,26.5V782H881.7
		c0,0,1.5-295.8,0-326.5h108.5v46.1c14.5-22.3,40.3-54,97.9-54c71.4,0,124.9,46.6,124.9,147L1213.1,782L1213.1,782L1213.1,782z"/>
</g>
<path class="st2" d="M960,33.6c-279.6,0-506.4,226.8-506.4,506.4c0,279.6,226.8,506.4,506.4,506.4s506.4-226.6,506.4-506.4
	C1466.4,260.4,1239.6,33.6,960,33.6z M1068.5,540.2h-70.9c0,113.4,0,253.1,0,253.1H892.5c0,0,0-138.2,0-253.1h-50.1v-89.3h50.1V393
	c0-41.5,19.6-106,106-106l77.8,0.2v86.9c0,0-47.4,0-56.5,0c-9.3,0-22.3,4.7-22.3,24.3v52.5h80.3L1068.5,540.2z"/>
<path class="st3" d="M778.1,378.4c-18.7,8.1-38.5,13.7-59.6,16.2c21.4-12.8,37.8-33.1,45.7-57.4c-20.1,12-42.5,20.6-66,25.3
	c-18.9-20.1-45.9-32.6-75.8-32.6c-57.4,0-103.8,46.4-103.8,103.8c0,8.1,1,16,2.7,23.6c-86.2-4.2-162.7-45.7-214-108.5
	c-8.8,15.5-14,33.1-14,52.3c0,36.1,18.2,67.7,46.1,86.4c-17.2-0.5-33.1-5.2-47.1-13c0,0.2,0,0.7,0,1.2c0,50.3,35.8,92.3,83.2,101.9
	c-8.6,2.5-17.7,3.7-27.2,3.7c-6.9,0-13.3-0.7-19.6-2c13.3,41.2,51.5,71.2,97,72.2c-35.3,28-80.3,44.4-128.9,44.4
	c-8.3,0-16.7-0.5-24.8-1.5c46.1,29.5,100.6,46.6,159.3,46.6c191,0,295.5-158.3,295.5-295.5c0-4.7,0-9.1-0.2-13.5
	C746.6,417.2,764.3,398.8,778.1,378.4z"/>
</svg>
