<?xml version="1.0" encoding="utf-8"?>
<!-- Generator: Adobe Illustrator 19.2.1, SVG Export Plug-In . SVG Version: 6.00 Build 0)  -->
<svg version="1.1" id="Calque_1" xmlns="http://www.w3.org/2000/svg" xmlns:xlink="http://www.w3.org/1999/xlink" x="0px" y="0px"
	 viewBox="0 0 1080 1080" style="enable-background:new 0 0 1080 1080;" xml:space="preserve">
<style type="text/css">
	.st0{display:none;}
	.st1{display:inline;fill:#6F6F6E;}
	.st2{display:none;fill:#6F6F6E;}
	.st3{fill:none;}
	.st4{fill:#FFFFFF;}
</style>
<g class="st0">
	<path class="st1" d="M955.6,462.9c3.9,0,7.1-1,9.3-3.2s3.4-5.2,3.4-9.1v-76.8c0-3.2-1.2-5.6-3.4-7.4c-2.5-2-5.4-2.9-9.3-2.9
		c-3.4,0-6.4,1-8.6,2.9s-3.2,4.4-3.2,7.4v76.8c0,3.9,1,6.9,3.2,9.1C948.7,461.9,951.7,462.9,955.6,462.9z"/>
	<path class="st1" d="M1019.2,604.8c-3.9,0-7.9,1-11.8,2.9c-3.9,2-7.6,5.2-11,8.8v-56h-25.8v173.8h25.8v-9.8c3.4,3.9,7.1,6.9,11,8.6
		c3.9,2,8.3,2.7,13.5,2.7c7.6,0,13.5-2.5,17.4-7.1c3.9-4.9,6.1-11.8,6.1-20.9v-71.2c0-10.6-2.2-18.4-6.4-24.1
		C1033.4,607.5,1027.3,604.8,1019.2,604.8z M1017.7,704.7c0,4.2-0.7,7.1-2.2,8.8c-1.5,2-3.7,2.7-6.9,2.7c-2.2,0-4.2-0.5-6.1-1.5
		c-2-1-3.9-2.5-6.1-4.4v-79.8c1.7-1.7,3.4-3.2,5.4-3.9c1.7-0.7,3.7-1.2,5.4-1.2c3.4,0,6.1,1.2,7.9,3.4c1.7,2.2,2.7,5.4,2.7,9.8
		L1017.7,704.7L1017.7,704.7z"/>
	<polygon class="st1" points="778.1,586.1 808.1,586.1 808.1,734.6 837,734.6 837,586.1 866.7,586.1 866.7,560.9 778.1,560.9 	"/>
	<path class="st1" d="M925.6,703.7c-2.5,2.7-5.2,5.2-7.9,6.9c-2.9,1.7-5.4,2.7-7.1,2.7c-2.5,0-4.2-0.7-5.2-2c-1-1.5-1.5-3.4-1.5-6.6
		v-98.4h-25.5v107.3c0,7.6,1.5,13.3,4.4,17.2c2.9,3.9,7.4,5.6,13.5,5.6c4.9,0,9.8-1.2,15-4.2c5.2-2.7,10.1-6.6,14.7-11.8v14h25.5
		V606.3h-26L925.6,703.7L925.6,703.7L925.6,703.7z"/>
	<path class="st1" d="M960,33.6c-279.6,0-506.4,226.8-506.4,506.4c0,279.6,226.8,506.4,506.4,506.4s506.4-226.6,506.4-506.4
		C1466.4,260.4,1239.6,33.6,960,33.6z M1021.1,342.7h28.7v108.2c0,3.4,0.7,5.6,2,7.1c1.2,1.5,3.2,2.2,5.9,2.2c2.2,0,4.9-1,8.1-2.9
		c3.2-2,6.1-4.4,8.8-7.6V342.4h29v141.1h-29v-15.7c-5.4,5.6-10.8,10.3-16.7,13.3c-5.6,2.9-11.3,4.7-16.7,4.7c-6.6,0-11.8-2.2-15-6.4
		c-3.4-4.2-5.2-10.6-5.2-18.9L1021.1,342.7L1021.1,342.7z M914.1,374.8c0-11,3.9-19.6,11.5-26c7.9-6.4,18.2-9.8,31.4-9.8
		c12,0,21.6,3.4,29.5,10.3c7.6,6.9,11.3,15.7,11.3,26.5v72.9c0,12-3.7,21.6-11,28.5c-7.6,6.9-17.9,10.3-30.9,10.3
		c-12.5,0-22.8-3.7-30.2-10.8c-7.6-7.1-11.3-16.7-11.3-28.7L914.1,374.8L914.1,374.8z M835.6,292.3l21.1,76.6h2l20.1-76.6h32.9
		l-37.8,111.9v79.3h-32.4v-75.8l-38.5-115.6h32.6L835.6,292.3L835.6,292.3z M1213.1,695.1c0,51.1-41.5,92.5-92.5,92.5H799.2
		c-51.1,0-92.5-41.5-92.5-92.5v-74.4c0-51.1,41.5-92.5,92.5-92.5h321.3c51.1,0,92.5,41.5,92.5,92.5L1213.1,695.1L1213.1,695.1z"/>
	<path class="st1" d="M1096.5,603.3c-11.5,0-20.9,3.4-28,10.6c-7.4,6.9-10.8,16.2-10.8,27.2v57.4c0,12.3,3.4,22.1,9.8,29
		c6.6,7.1,15.7,10.6,27,10.6c12.8,0,22.3-3.2,28.7-9.8c6.4-6.6,9.6-16.4,9.6-29.7v-6.6h-26.3v5.9c0,7.6-1,12.5-2.5,14.7
		c-1.7,2.2-4.7,3.4-8.8,3.4s-6.9-1.2-8.6-3.9c-1.7-2.7-2.5-7.4-2.5-14V674h49.1v-32.6c0-12.3-3.2-21.4-9.6-28
		C1117.3,606.5,1108.3,603.3,1096.5,603.3z M1106.5,653.6H1084v-13c0-5.4,1-9.3,2.7-11.5c1.7-2.5,4.7-3.7,8.8-3.7
		c3.9,0,6.9,1.2,8.6,3.7c1.7,2.2,2.7,6.1,2.7,11.5L1106.5,653.6L1106.5,653.6z"/>
</g>
<path class="st2" d="M960,33.6c-279.6,0-506.4,226.8-506.4,506.4c0,279.6,226.8,506.4,506.4,506.4s506.4-226.8,506.4-506.4
	C1466.4,260.4,1239.6,33.6,960,33.6z M1161.3,436.9c0.2,4.4,0.2,8.8,0.2,13.5c0,137.2-104.6,295.5-295.5,295.5
	c-58.7,0-113.2-17.2-159.3-46.6c8.1,1,16.4,1.5,24.8,1.5c48.6,0,93.5-16.4,128.9-44.4c-45.4-1-83.7-30.9-97-72.2
	c6.4,1.2,12.8,2,19.6,2c9.6,0,18.7-1.2,27.2-3.7c-47.4-9.6-83.2-51.5-83.2-101.9c0-0.5,0-1,0-1.2c14,7.9,29.9,12.5,47.1,13
	c-28-18.7-46.1-50.3-46.1-86.4c0-19.1,5.2-36.8,14-52.3c51.3,62.8,127.9,104.3,214,108.5c-1.7-7.6-2.7-15.5-2.7-23.6
	c0-57.4,46.4-103.8,103.8-103.8c29.9,0,56.9,12.5,75.8,32.6c23.6-4.7,45.9-13.3,66-25.3c-7.9,24.3-24.3,44.7-45.7,57.4
	c21.1-2.5,41-8.1,59.6-16.2C1199.3,403.8,1181.6,422.2,1161.3,436.9z"/>
<path class="st2" d="M960,33.6c-279.6,0-506.4,226.8-506.4,506.4c0,279.6,226.8,506.4,506.4,506.4s506.4-226.6,506.4-506.4
	C1466.4,260.4,1239.6,33.6,960,33.6z M1068.5,540.2h-70.9c0,113.4,0,253.1,0,253.1H892.5c0,0,0-138.2,0-253.1h-50.1v-89.3h50.1V393
	c0-41.5,19.6-106,106-106l77.8,0.2v86.9c0,0-47.4,0-56.5,0c-9.3,0-22.3,4.7-22.3,24.3v52.5h80.3L1068.5,540.2z"/>
<g>
	<path class="st3" d="M444.8,764H336.3V437.6h108.5V764z M504.7,437.6h108.5v46.1c14.5-22.3,40.3-54,97.9-54
		c71.4,0,124.9,46.6,124.9,147V764h0v0H727.6V589.3c0-43.9-15.7-73.9-55-73.9c-29.9,0-47.9,20.4-55.7,39.8
		c-2.9,6.9-3.7,16.7-3.7,26.5V764H504.7C504.7,764,506.2,468.2,504.7,437.6z M391.3,280c37.1,0,59.9,24.3,60.6,56.5
		c0,31.4-23.6,56.5-61.4,56.5h-0.7c-36.3,0-59.9-25-59.9-56.5C329.9,304.5,354.2,280,391.3,280z"/>
	<path class="st3" d="M613.4,483.7c-0.2,0.5-0.5,0.7-0.7,1h0.7V483.7z"/>
	<rect x="336.3" y="437.6" class="st4" width="108.5" height="326.5"/>
	<path class="st4" d="M613.2,764V581.6c0-9.8,0.7-19.6,3.7-26.5c7.9-19.4,25.8-39.8,55.7-39.8c39.3,0,55,29.9,55,73.9V764h108.5v0h0
		V576.7c0-100.4-53.5-147-124.9-147c-57.7,0-83.5,31.7-97.9,54v-46.1H504.7c1.5,30.7,0,326.5,0,326.5H613.2z M613.4,483.7v1h-0.7
		C612.9,484.4,613.2,484.2,613.4,483.7z"/>
	<path class="st4" d="M389.8,392.9h0.7c37.8,0,61.4-25,61.4-56.5c-0.7-32.2-23.6-56.5-60.6-56.5c-37.1,0-61.4,24.5-61.4,56.5
		C329.9,367.9,353.5,392.9,389.8,392.9z"/>
</g>
</svg>
