<?xml version="1.0" encoding="utf-8"?>
<!-- Generator: Adobe Illustrator 19.2.1, SVG Export Plug-In . SVG Version: 6.00 Build 0)  -->
<svg version="1.1" id="Calque_1" xmlns="http://www.w3.org/2000/svg" xmlns:xlink="http://www.w3.org/1999/xlink" x="0px" y="0px"
	 viewBox="0 0 1080 1080" style="enable-background:new 0 0 1080 1080;" xml:space="preserve">
<style type="text/css">
	.st0{display:none;}
	.st1{display:inline;fill:#6F6F6E;}
	.st2{display:none;fill:#6F6F6E;}
	.st3{fill:#FFFFFF;}
</style>
<g class="st0">
	<path class="st1" d="M955.6,462.9c3.9,0,7.1-1,9.3-3.2s3.4-5.2,3.4-9.1v-76.8c0-3.2-1.2-5.6-3.4-7.4c-2.5-2-5.4-2.9-9.3-2.9
		c-3.4,0-6.4,1-8.6,2.9s-3.2,4.4-3.2,7.4v76.8c0,3.9,1,6.9,3.2,9.1C948.7,461.9,951.7,462.9,955.6,462.9z"/>
	<path class="st1" d="M1019.2,604.8c-3.9,0-7.9,1-11.8,2.9c-3.9,2-7.6,5.2-11,8.8v-56h-25.8v173.8h25.8v-9.8c3.4,3.9,7.1,6.9,11,8.6
		c3.9,2,8.3,2.7,13.5,2.7c7.6,0,13.5-2.5,17.4-7.1c3.9-4.9,6.1-11.8,6.1-20.9v-71.2c0-10.6-2.2-18.4-6.4-24.1
		C1033.4,607.5,1027.3,604.8,1019.2,604.8z M1017.7,704.7c0,4.2-0.7,7.1-2.2,8.8c-1.5,2-3.7,2.7-6.9,2.7c-2.2,0-4.2-0.5-6.1-1.5
		c-2-1-3.9-2.5-6.1-4.4v-79.8c1.7-1.7,3.4-3.2,5.4-3.9c1.7-0.7,3.7-1.2,5.4-1.2c3.4,0,6.1,1.2,7.9,3.4c1.7,2.2,2.7,5.4,2.7,9.8
		L1017.7,704.7L1017.7,704.7z"/>
	<polygon class="st1" points="778.1,586.1 808.1,586.1 808.1,734.6 837,734.6 837,586.1 866.7,586.1 866.7,560.9 778.1,560.9 	"/>
	<path class="st1" d="M925.6,703.7c-2.5,2.7-5.2,5.2-7.9,6.9c-2.9,1.7-5.4,2.7-7.1,2.7c-2.5,0-4.2-0.7-5.2-2c-1-1.5-1.5-3.4-1.5-6.6
		v-98.4h-25.5v107.3c0,7.6,1.5,13.3,4.4,17.2s7.4,5.6,13.5,5.6c4.9,0,9.8-1.2,15-4.2c5.2-2.7,10.1-6.6,14.7-11.8v14h25.5V606.3h-26
		L925.6,703.7L925.6,703.7L925.6,703.7z"/>
	<path class="st1" d="M960,33.6c-279.6,0-506.4,226.8-506.4,506.4s226.8,506.4,506.4,506.4s506.4-226.6,506.4-506.4
		C1466.4,260.4,1239.6,33.6,960,33.6z M1021.1,342.7h28.7v108.2c0,3.4,0.7,5.6,2,7.1c1.2,1.5,3.2,2.2,5.9,2.2c2.2,0,4.9-1,8.1-2.9
		c3.2-2,6.1-4.4,8.8-7.6V342.4h29v141.1h-29v-15.7c-5.4,5.6-10.8,10.3-16.7,13.3c-5.6,2.9-11.3,4.7-16.7,4.7c-6.6,0-11.8-2.2-15-6.4
		c-3.4-4.2-5.2-10.6-5.2-18.9L1021.1,342.7L1021.1,342.7z M914.1,374.8c0-11,3.9-19.6,11.5-26c7.9-6.4,18.2-9.8,31.4-9.8
		c12,0,21.6,3.4,29.5,10.3c7.6,6.9,11.3,15.7,11.3,26.5v72.9c0,12-3.7,21.6-11,28.5c-7.6,6.9-17.9,10.3-30.9,10.3
		c-12.5,0-22.8-3.7-30.2-10.8c-7.6-7.1-11.3-16.7-11.3-28.7L914.1,374.8L914.1,374.8z M835.6,292.3l21.1,76.6h2l20.1-76.6h32.9
		l-37.8,111.9v79.3h-32.4v-75.8L803,292.1h32.6L835.6,292.3L835.6,292.3z M1213.1,695.1c0,51.1-41.5,92.5-92.5,92.5H799.2
		c-51.1,0-92.5-41.5-92.5-92.5v-74.4c0-51.1,41.5-92.5,92.5-92.5h321.3c51.1,0,92.5,41.5,92.5,92.5L1213.1,695.1L1213.1,695.1z"/>
	<path class="st1" d="M1096.5,603.3c-11.5,0-20.9,3.4-28,10.6c-7.4,6.9-10.8,16.2-10.8,27.2v57.4c0,12.3,3.4,22.1,9.8,29
		c6.6,7.1,15.7,10.6,27,10.6c12.8,0,22.3-3.2,28.7-9.8c6.4-6.6,9.6-16.4,9.6-29.7V692h-26.3v5.9c0,7.6-1,12.5-2.5,14.7
		c-1.7,2.2-4.7,3.4-8.8,3.4s-6.9-1.2-8.6-3.9s-2.5-7.4-2.5-14V674h49.1v-32.6c0-12.3-3.2-21.4-9.6-28
		C1117.3,606.5,1108.3,603.3,1096.5,603.3z M1106.5,653.6H1084v-13c0-5.4,1-9.3,2.7-11.5c1.7-2.5,4.7-3.7,8.8-3.7
		c3.9,0,6.9,1.2,8.6,3.7c1.7,2.2,2.7,6.1,2.7,11.5L1106.5,653.6L1106.5,653.6z"/>
</g>
<path class="st2" d="M960,33.6c-279.6,0-506.4,226.8-506.4,506.4s226.8,506.4,506.4,506.4s506.4-226.8,506.4-506.4
	S1239.6,33.6,960,33.6z M1161.3,436.9c0.2,4.4,0.2,8.8,0.2,13.5c0,137.2-104.6,295.5-295.5,295.5c-58.7,0-113.2-17.2-159.3-46.6
	c8.1,1,16.4,1.5,24.8,1.5c48.6,0,93.5-16.4,128.9-44.4c-45.4-1-83.7-30.9-97-72.2c6.4,1.2,12.8,2,19.6,2c9.6,0,18.7-1.2,27.2-3.7
	C762.8,572.9,727,531,727,480.6c0-0.5,0-1,0-1.2c14,7.9,29.9,12.5,47.1,13c-28-18.7-46.1-50.3-46.1-86.4c0-19.1,5.2-36.8,14-52.3
	c51.3,62.8,127.9,104.3,214,108.5c-1.7-7.6-2.7-15.5-2.7-23.6c0-57.4,46.4-103.8,103.8-103.8c29.9,0,56.9,12.5,75.8,32.6
	c23.6-4.7,45.9-13.3,66-25.3c-7.9,24.3-24.3,44.7-45.7,57.4c21.1-2.5,41-8.1,59.6-16.2C1199.3,403.8,1181.6,422.2,1161.3,436.9z"/>
<path class="st2" d="M960,33.6c-279.6,0-506.4,226.8-506.4,506.4s226.8,506.4,506.4,506.4s506.4-226.6,506.4-506.4
	C1466.4,260.4,1239.6,33.6,960,33.6z M1068.5,540.2h-70.9c0,113.4,0,253.1,0,253.1H892.5c0,0,0-138.2,0-253.1h-50.1v-89.3h50.1V393
	c0-41.5,19.6-106,106-106l77.8,0.2v86.9c0,0-47.4,0-56.5,0c-9.3,0-22.3,4.7-22.3,24.3v52.5h80.3L1068.5,540.2z"/>
<g>
	<path class="st3" d="M540,33.6C260.4,33.6,33.6,260.4,33.6,540s226.6,506.4,506.4,506.4c279.6,0,506.4-226.6,506.4-506.4
		C1046.3,260.4,819.5,33.6,540,33.6z"/>
</g>
<path d="M827.8,540.8c0,27.2,1.3,54.5-0.7,81.6c-0.7,9.6-6.8,22.2-14.5,27.5c-83.5,56.9-167.9,112.6-251.9,168.8
	c-11.8,7.9-22.7,7.6-34.4-0.2c-84-56.2-168.4-111.9-251.9-168.8c-7.7-5.2-14-18.1-14.2-27.6c-1.3-54.4-1.4-108.8,0-163.2
	c0.2-9.4,6.8-22.2,14.5-27.4c83.5-56.9,167.9-112.6,251.9-168.8c11.8-7.9,22.7-7.7,34.4,0.2c84,56.2,168.4,111.9,251.9,168.8
	c7.7,5.2,13.5,18,14.2,27.7C829,486.3,827.8,513.6,827.8,540.8z M518.9,327.3c-64.8,43.2-126.6,84.4-190.2,126.8
	c27,18,51.8,35,77.1,51.1c3.7,2.4,11.6,2.3,15.3,0c30.8-19.7,61.1-40.2,91.4-60.8c2.9-2,6.1-6.3,6.1-9.6
	C519.1,400.1,518.9,365.5,518.9,327.3z M568.4,327.3c0,38.1-0.3,72.7,0.4,107.3c0.1,4,4.9,8.9,8.8,11.6
	c28.7,19.7,57.6,39.1,86.8,58.1c3.9,2.5,11.1,4.9,14,3c26.6-16.9,52.6-34.7,80.3-53.2C694.6,411.3,632.9,370.3,568.4,327.3z
	 M328.6,627.1c63.9,42.6,125.6,83.7,190.3,126.7c0-38,0.2-72.6-0.3-107.1c-0.1-3.6-3.9-8.3-7.3-10.6c-29.7-20.3-59.6-40.5-89.8-59.9
	c-3.8-2.4-11.6-2.6-15.3-0.3C380.7,591.9,355.9,608.9,328.6,627.1z M758.7,627.1c-27.4-18.3-52.2-35.4-77.7-51.3
	c-3.9-2.4-12.5-1.4-16.8,1.4c-29.3,18.8-58.1,38.3-86.8,58c-3.9,2.7-8.6,7.7-8.6,11.7c-0.7,34.5-0.4,69.1-0.4,107
	C633.1,710.8,694.8,669.7,758.7,627.1z M629.2,540.6c-21.5-14.4-40.5-27.2-59.5-39.9c-26.1-17.5-26.1-17.5-52.3,0.1
	c-19.3,12.9-38.5,25.9-59.2,39.9c27.8,18.7,52.6,35.7,78,51.8c3.7,2.3,11.4,2.3,15.1-0.1C576.7,576.3,601.4,559.2,629.2,540.6z
	 M368.9,540.6c-20.6-13.8-38.9-26-58.9-39.5c0,27.4,0,51.7,0,78.7C329.8,566.6,347.8,554.6,368.9,540.6z M777.2,579.9
	c0-27.3,0-51.6,0-78.6c-20.2,13.6-38.5,25.8-58.7,39.3C738.8,554.1,756.7,566.2,777.2,579.9z"/>
</svg>
