<?xml version="1.0" encoding="utf-8"?>
<!-- Generator: Adobe Illustrator 20.1.0, SVG Export Plug-In . SVG Version: 6.00 Build 0)  -->
<svg version="1.1" id="Calque_1" xmlns="http://www.w3.org/2000/svg" xmlns:xlink="http://www.w3.org/1999/xlink" x="0px" y="0px"
	 viewBox="0 0 200 200" style="enable-background:new 0 0 200 200;" xml:space="preserve">
<g>
	<g>
		<path d="M105,152c-0.1,0-0.2-0.1-0.2-0.1c-1.4-1-2.8-1.9-4.2-2.8c-7.9-5.1-15.8-10.2-23.7-15.3c-3.7-2.4-7.3-4.7-11-7.1
			c-0.4-0.2-0.7-0.3-1.1-0.3c-7.1,0-14.1,0-21.2,0c-0.7,0-0.8-0.1-0.8-0.8c0-15.3,0-30.6,0-46c0-0.7,0.2-0.8,0.8-0.8
			c7.1,0,14.2,0,21.3,0c0.4,0,0.8-0.1,1.1-0.4c11-8.6,22-17.3,33.1-25.9c1.8-1.4,3.5-2.8,5.3-4.1c0.2-0.1,0.4-0.4,0.6-0.3
			c0.2,0.1,0.1,0.4,0.1,0.7c0,30.2,0,60.5,0,90.7c0,4.1,0,8.3,0,12.4L105,152L105,152z"/>
		<g>
			<path d="M153,97.1c0,7.9-1,14.7-3.3,21.3c-1.5,4.2-3.5,8.1-6.5,11.5c-2.6,2.9-5.8,5.1-9.8,5.7c-1.7,0.3-1.7,0.3-1.7-1.4
				c0-1.4,0-2.8,0-4.2c0-0.4,0.1-0.6,0.5-0.6c3-0.2,5.1-2.1,6.8-4.2c3.2-3.9,5-8.6,6.1-13.5c0.9-3.9,1.4-7.8,1.5-11.8
				c0.2-7.5-0.7-14.9-3.6-21.9c-1.3-3.1-2.9-6-5.3-8.4c-1.6-1.5-3.4-2.7-5.6-2.8c-0.3,0-0.4-0.2-0.4-0.4c0-1.8,0-3.6,0-5.4
				c0-0.4,0.2-0.4,0.5-0.4c2.4,0.1,4.6,0.8,6.6,2.1c3.4,2.2,5.9,5.2,7.9,8.7c2.7,4.8,4.3,9.9,5.2,15.3C152.7,90.4,153,94.2,153,97.1
				z"/>
			<path d="M125.6,118.4c0-0.9,0-1.7,0-2.6c0-0.2,0-0.5,0.3-0.5c1.5-0.2,2.4-1.3,3.2-2.4c1.8-2.4,2.6-5.1,3.2-8
				c0.5-2.6,0.6-5.3,0.5-7.9c-0.2-3.7-0.9-7.3-2.6-10.7c-0.7-1.3-1.6-2.5-2.8-3.4c-0.3-0.2-0.7-0.5-1.1-0.5c-0.7,0-0.7-0.4-0.7-0.9
				c0-1.6,0-3.3,0-4.9c0-0.4,0.1-0.5,0.5-0.5c2.2,0.1,4.1,1,5.8,2.4c2.7,2.4,4.3,5.5,5.4,8.8c0.9,2.7,1.4,5.6,1.6,8.5
				c0.3,4.4,0,8.8-1.2,13.1c-0.9,3.3-2.3,6.4-4.7,9c-1.8,2-4,3.4-6.9,3.6c-0.5,0-0.7-0.1-0.6-0.6
				C125.7,120.1,125.6,119.3,125.6,118.4z"/>
		</g>
	</g>
</g>
</svg>
