<svg xmlns="http://www.w3.org/2000/svg" viewBox="0 0 448.88 764.52"><defs><style>.cls-1{fill:#ede6e0;}.cls-2{fill:none;stroke:#dbd0c8;stroke-miterlimit:10;}</style></defs><title>workflow</title><g id="Calque_2" data-name="Calque 2"><g id="Calque_1-2" data-name="Calque 1"><rect class="cls-1" x="51" y="645" width="43" height="43" transform="translate(306.79 38.34) rotate(26.66)"/><circle class="cls-1" cx="282.38" cy="234" r="7"/><circle class="cls-1" cx="131" cy="354" r="7"/><polygon class="cls-1" points="64.66 229 0 164.34 76 153 64.66 229"/><circle class="cls-1" cx="165" cy="753" r="7"/><polygon class="cls-1" points="317.14 722.17 357.33 742.56 323.46 759.51 317.14 722.17"/><circle class="cls-1" cx="282.27" cy="583.02" r="7"/><circle class="cls-2" cx="282.38" cy="106.5" r="72.5"/><circle class="cls-2" cx="282.38" cy="32.5" r="32"/><circle class="cls-2" cx="282.38" cy="635.02" r="120"/><circle class="cls-2" cx="282.38" cy="664.02" r="81"/><circle class="cls-2" cx="282.38" cy="357.93" r="148.93"/><circle class="cls-2" cx="282.38" cy="341.75" r="132.75"/><circle class="cls-2" cx="282.38" cy="323" r="114"/><circle class="cls-2" cx="282.38" cy="375" r="166"/><circle cx="282.38" cy="543.52" r="7"/><circle cx="282.38" cy="757.52" r="7"/><circle cx="342.27" cy="145.52" r="7"/><circle cx="195" cy="32" r="7"/><polygon points="302.73 693 253.38 643.66 311.38 635 302.73 693"/><rect x="260.88" y="91" width="43" height="43" transform="translate(80.51 -114.75) rotate(26.66)"/><circle cx="282.38" cy="334.52" r="14"/></g></g></svg>